<svg xmlns="http://www.w3.org/2000/svg" width="800" height="800" viewBox="0 0 414.594 414.594" xml:space="preserve"><path d="m357.594 298.009-84.891-33.848-19.881-16.748c-5.25-4.438-13.004-4.11-17.873.73l-27.64 27.481-27.717-27.492a13.239 13.239 0 0 0-17.864-.722l-19.879 16.748-84.895 33.854C29.622 308.9 29.644 405.708 27.297 414.594h360c-2.342-8.864-2.356-105.709-29.703-116.585zM314.002 87.668C308.106 38.434 262.505 0 207.297 0s-100.81 38.434-106.705 87.668c-4.898 3.137-8.153 8.613-8.153 14.859v39.996c0 9.743 7.899 17.646 17.646 17.646l15.942-.04c9.848 51.453 44.795 80.728 81.27 80.728 36.475 0 57.666-17.339 71.719-49.293-10.729 8.416-26.324 16.114-48.134 17.704a11.156 11.156 0 0 1-9.276 4.951h-10.189c-6.167 0-11.167-4.999-11.167-11.167s5-11.167 11.167-11.167h10.189c3.611 0 6.813 1.723 8.854 4.383 35.067-2.815 51.558-24.083 58.134-36.091l15.916-.006c9.746 0 17.646-7.903 17.646-17.646v-39.996c-.002-6.248-3.257-11.724-8.154-14.861zm-26.041 1.802c-10.407-32.854-40.473-52.385-80.664-52.385-40.192 0-70.276 19.519-80.694 52.357a17.61 17.61 0 0 0-5.559-3.401C127.705 48.656 163.845 20 207.297 20s79.591 28.656 86.253 66.041a17.612 17.612 0 0 0-5.589 3.429z"/></svg>